<svg width="88" height="88" viewBox="0 0 88 88" fill="none" xmlns="http://www.w3.org/2000/svg">
<rect width="87.2765" height="87.2765" rx="43.6383" fill="#040404"/>
<g clip-path="url(#clip0_2307_14371)">
<path d="M42.4179 30.6761C42.4179 28.7404 43.9973 27.1635 45.936 27.1635H52.2308V18.6174H49.0833H45.936C39.2668 18.6174 33.8589 24.0171 33.8589 30.6761C33.8589 32.4138 34.2294 34.0655 34.8918 35.5563C29.7122 37.7424 26.2729 42.3873 25.472 48.2652C24.5364 54.7188 27.1262 61.6804 32.7661 65.0436C37.7998 68.2087 45.6702 67.9994 49.9217 63.6086V66.5234H58.6829V34.1887H45.9396C44.0011 34.1887 42.4179 32.6118 42.4179 30.6761ZM50.1163 42.7385V50.8549C50.1163 55.3391 46.4749 58.9712 41.9877 58.9712C37.5004 58.9712 33.8589 55.3353 33.8589 50.8549C33.8589 46.3744 37.5004 42.7385 41.9877 42.7385H50.1163Z" fill="#BFF009"/>
</g>
<defs>
<clipPath id="clip0_2307_14371">
<rect width="33.5142" height="48.7003" fill="white" transform="translate(25.2229 18.5024)"/>
</clipPath>
</defs>
</svg>
